# xmcd
# 
# Track frame offsets:
#     150
#     11785
#     26767
#     42575
#     51880
#     69017
#     80572
#     90037
#     101910
#     124717
#     138162
#     149642
#     164177
#     180117
#     196237
#     207237
#     222220
#     233912
# 
# Disc length: 3278
# 
# Revision: 2
# Processed by: cddbd v1.5.2PL0 Copyright (c) Steve Scherf et al.
# Submitted via: fre:ac v1.0.31
# 
DISCID=fc0ccc12
DTITLE=Various Artist - Blues and Soul
DYEAR=1995
DGENRE=Soul
TTITLE0=The Drifters - Saturday Night At The Movies
TTITLE1=George McCrae - Rock Your Baby
TTITLE2=Lou Rawls - Lady Love
TTITLE3=James Brown - Papa's Got  A Brand New Bag
TTITLE4=Brook Benton - Rainy Night In Georgia
TTITLE5=The Tams - Hey Girl Don't Bother Me
TTITLE6=The Shirelles - Dedicated To The One I Love
TTITLE7=Clarence Carter - Band Of Gold
TTITLE8=B.B. King - Everyday I Have The Blues
TTITLE9=Dobie Gray - The In-Crowd
TTITLE10=Fats Domino - Blue Monday
TTITLE11=Del Vikings - Come Go With Me
TTITLE12=The Ink Spots - If I Didn't Care
TTITLE13=Dobie Gray - Drift Away
TTITLE14=Fats Domino - Walkin' To New Orleans
TTITLE15=The Platters - The Great Pretender
TTITLE16=The Platters - Only You
TTITLE17=Fats Domino - Blueberry Hill
EXTD=
EXTT0=
EXTT1=
EXTT2=
EXTT3=
EXTT4=
EXTT5=
EXTT6=
EXTT7=
EXTT8=
EXTT9=
EXTT10=
EXTT11=
EXTT12=
EXTT13=
EXTT14=
EXTT15=
EXTT16=
EXTT17=
PLAYORDER=
